<svg xmlns="http://www.w3.org/2000/svg" xmlns:xlink="http://www.w3.org/1999/xlink" width="30" height="25" viewBox="0 0 30 25">
    <defs>
        <path id="a" d="M0 0h29.923v24.867H0z"/>
    </defs>
    <g fill="none" fill-rule="evenodd">
        <path fill="#ADE5B5" d="M7.094 12.797L1.478 1.872a.516.516 0 0 1 .715-.47L15.51 6.975l12.85 5.38a.516.516 0 0 1-.01.956l-12.964 5.1-13.433 5.285a.516.516 0 0 1-.705-.485l5.847-10.415z"/>
        <path fill="#FFFEFF" d="M2.29 23.564l6.285-2.472.183-16.943-6.23-2.608-.025 2.325 4.59 8.93-4.779 8.514z"/>
        <g transform="translate(0 .113)">
            <mask id="b" fill="#fff">
                <use xlink:href="#a"/>
            </mask>
            <path fill="#00B23A" d="M3.644 3.247L8.51 12.71l-5.012 8.927 22.722-8.94-22.575-9.45zm-1.9 21.62A1.762 1.762 0 0 1 0 23.085l.004-.32 5.675-10.107L.228 2.054l.003-.31A1.76 1.76 0 0 1 2.675.139L28.84 11.092c.665.279 1.09.925 1.082 1.646a1.756 1.756 0 0 1-1.117 1.621L2.408 24.744c-.215.085-.44.125-.665.123z" mask="url(#b)"/>
        </g>
        <path fill="#00B23A" d="M13.122 13.915l-6.04-.065a1.247 1.247 0 0 1 .027-2.493l6.04.066a1.246 1.246 0 1 1-.027 2.492"/>
    </g>
</svg>
